<?xml version="1.0" standalone="no"?>
<!DOCTYPE svg PUBLIC "-//W3C//DTD SVG 20010904//EN"
 "http://www.w3.org/TR/2001/REC-SVG-20010904/DTD/svg10.dtd">
<svg version="1.0" xmlns="http://www.w3.org/2000/svg"
 width="1024.000000pt" height="1024.000000pt" viewBox="0 0 1024.000000 1024.000000"
 preserveAspectRatio="xMidYMid meet">

<g transform="translate(0.000000,1024.000000) scale(0.100000,-0.100000)"
fill="#000000" stroke="none">
<path d="M7034 4830 c-90 -13 -141 -28 -148 -45 -4 -13 8 -15 77 -15 102 0
165 -18 245 -69 80 -52 143 -137 167 -225 36 -133 3 -309 -86 -458 -89 -151
-302 -339 -553 -488 -69 -41 -125 -78 -126 -81 -2 -47 339 77 570 206 315 177
495 381 531 604 42 253 -121 486 -387 555 -77 20 -211 27 -290 16z"/>
<path d="M4060 4749 c-423 -55 -745 -148 -831 -240 -35 -38 -38 -84 -8 -123
28 -36 181 -108 306 -145 325 -96 760 -148 1303 -158 673 -12 1304 59 1725
194 166 53 163 45 44 114 l-102 59 -114 -25 c-435 -98 -919 -141 -1488 -132
-645 10 -1164 95 -1232 203 -44 69 173 165 529 235 62 12 117 26 123 30 15 14
-98 9 -255 -12z"/>
<path d="M3975 3913 c-273 -61 -409 -112 -453 -168 -134 -170 371 -346 1133
-395 506 -32 1114 21 1500 131 83 24 235 81 235 89 0 3 -59 38 -131 79 l-131
73 -117 -25 c-496 -111 -1138 -137 -1621 -67 -289 42 -450 108 -450 184 0 11
20 39 45 63 45 42 43 48 -10 36z"/>
<path d="M4095 3076 c-150 -43 -233 -90 -262 -151 -64 -134 200 -265 661 -330
456 -64 1045 -26 1385 90 85 28 191 75 191 84 0 3 -70 46 -156 95 l-156 90
-116 -22 c-172 -32 -232 -40 -392 -52 -427 -30 -872 16 -1000 102 -50 35 -58
53 -38 88 l17 30 -27 -1 c-15 0 -63 -11 -107 -23z"/>
<path d="M3440 2873 c-427 -74 -798 -225 -885 -358 -52 -81 -46 -135 23 -204
205 -203 945 -354 1967 -402 710 -33 1584 45 2115 188 304 82 520 200 566 308
28 68 14 134 -39 183 l-25 24 -32 -47 c-147 -214 -676 -365 -1510 -430 -281
-22 -825 -30 -1050 -16 -865 56 -1538 233 -1533 405 3 118 182 244 455 321 89
26 51 46 -52 28z"/>
<path d="M7485 2224 c-310 -275 -997 -474 -1891 -549 -655 -54 -1382 -36
-1979 50 -138 20 -172 22 -183 12 -10 -11 16 -20 140 -50 263 -63 570 -109
923 -139 199 -17 942 -17 1140 0 798 67 1388 216 1703 431 108 73 201 193 202
259 0 30 -8 28 -55 -14z"/>
</g>
</svg>
